<svg width="512" height="512" viewBox="0 0 512 512" xmlns="http://www.w3.org/2000/svg">
	<defs>
		<linearGradient id="bg" x1="0%" y1="0%" x2="100%" y2="100%">
			<stop offset="0%" stop-color="#0E9F6E"/> <stop offset="55%" stop-color="#27AE60"/> <stop offset="100%" stop-color="#F7DC6F"/>
		</linearGradient>
	</defs>
	<!-- Background -->
	<rect x="36" y="36" width="440" height="440" rx="90" fill="url(#bg)"/>
	<!-- Sparkles -->
	<g fill="#FFFFFF">
		<path d="M390 105 L396 125 L416 131 L396 137 L390 157 L384 137 L364 131 L384 125 Z"/>
		<path d="M435 155 L439 167 L451 171 L439 175 L435 187 L431 175 L419 171 L431 167 Z" opacity="0.9"/>
	</g>

	<!-- Folder -->
	<path d="M120 175 H375 C390 175 402 187 402 202 V335 C402 350 390 362 375 362 H120 C105 362 93 350 93 335 V202 C93 187 105 175 120 175 Z"
				fill="#FFFFFF"/>

	<!-- Folder Highlight -->
	<path d="M120 175 H375 C390 175 402 187 402 202 V220 H93 V202 C93 187 105 175 120 175 Z"
				fill="#FFFFFF" opacity="0.15"/>

	<!-- Download Icon -->
	<g stroke="#16A085" fill="none" stroke-linecap="round" stroke-linejoin="round">
		<!-- Speed Lines -->
		<path d="M130 240 H205" stroke-width="12"/>
		<path d="M145 270 H205" stroke-width="12" opacity="0.80"/>
		<path d="M160 300 H205" stroke-width="12" opacity="0.65"/>
		<!-- Download Arrow -->
		<path d="M300 225 V285" stroke-width="12"/>
		<!-- Arrow Head -->
		<path d="M278 263 L300 285 L322 263" stroke-width="12"/>
	</g>
</svg>
