<?xml version="1.0" encoding="UTF-8"?>
<!-- File Hunter Pro — repository mark, recolored to match app theme -->
<svg width="24" height="24" viewBox="0 0 24 24" xmlns="http://www.w3.org/2000/svg">
  <defs>
    <linearGradient id="fhp-git-grad" x1="0%" y1="0%" x2="100%" y2="100%">
      <stop offset="0%" stop-color="#0E9F6E"/>
      <stop offset="55%" stop-color="#27AE60"/>
      <stop offset="100%" stop-color="#F7DC6F"/>
    </linearGradient>
  </defs>
  <path
    d="M6.02935,2.00043 C6.44881,2.01276 6.81595,2.28567 6.94866,2.68378 L8.72073,7.99999586 L15.2792,7.99999586 L17.0513,2.68378 C17.184,2.28567 17.5511,2.01276 17.9706,2.00043 C18.3901,1.98811 18.7726,2.23898 18.9284,2.62861 L21.8263,9.87336 C22.6445,11.9187 22.0276,14.2585 20.3074,15.6347 L13.2494,21.2811 C12.5189,21.8655 11.481,21.8655 10.7506,21.2811 L3.69251,15.6347 C1.97233,14.2585 1.35546,11.9187 2.1736,9.87336 L5.0715,2.62861 C5.22735,2.23898 5.60988,1.98811 6.02935,2.00043 Z"
    fill="url(#fhp-git-grad)"/>
</svg>
